<svg version="1.1" id="Layer_1" xmlns="http://www.w3.org/2000/svg" xmlns:xlink="http://www.w3.org/1999/xlink" x="0px" y="0px"
	 width="100%" viewBox="0 0 436 436" enable-background="new 0 0 436 436" xml:space="preserve">
<path fill="#FEFEFE" opacity="1.000000" stroke="none" 
	d="
M241.000000,437.000000 
	C160.689545,437.000000 80.879082,437.000000 1.034311,437.000000 
	C1.034311,291.731201 1.034311,146.462372 1.034311,1.096772 
	C146.227112,1.096772 291.454315,1.096772 436.840759,1.096772 
	C436.840759,146.333191 436.840759,291.666595 436.840759,437.000000 
	C371.795685,437.000000 306.647858,437.000000 241.000000,437.000000 
M201.079285,394.668274 
	C190.473328,394.644257 179.867355,394.620239 169.118347,393.944550 
	C168.078461,392.915894 167.038574,391.887268 165.141937,390.802765 
	C163.425415,390.816895 161.708893,390.830994 159.574554,390.424194 
	C156.044052,393.939575 159.441254,396.632477 161.169922,398.793335 
	C163.487061,401.689789 166.243393,405.104309 171.939514,403.213989 
	C181.889740,403.243225 191.839981,403.272461 202.018372,403.982971 
	C206.449509,408.059082 205.001617,412.891327 202.874100,417.748810 
	C188.580139,417.764526 174.286194,417.780243 159.506424,417.399017 
	C157.863022,420.464386 156.813873,423.497437 160.926666,426.366821 
	C175.286652,426.332184 189.646637,426.297577 204.458389,426.712646 
	C213.227112,423.569366 214.693741,421.052887 214.640289,409.242126 
	C214.602463,400.879547 210.576340,396.279175 201.079285,394.668274 
M186.499802,226.002457 
	C175.169540,226.002472 163.838272,225.930038 152.510193,226.086945 
	C150.957733,226.108444 148.882111,226.832108 147.955566,227.969467 
	C120.832695,261.263092 93.823860,294.649597 66.800255,328.024048 
	C62.704700,333.082092 58.626156,338.153931 53.912514,343.996918 
	C74.680420,343.996918 94.291740,344.034851 113.901878,343.900818 
	C115.054573,343.892975 116.465698,342.720856 117.303123,341.713562 
	C124.187027,333.433716 130.983566,325.080872 137.768723,316.719421 
	C156.968369,293.059418 176.138000,269.375061 195.344620,245.720749 
	C203.116013,236.149750 210.952698,226.631760 218.941116,216.867889 
	C229.935333,230.470901 240.517487,243.625015 251.165237,256.725830 
	C274.054901,284.888885 296.946564,313.050659 319.976135,341.098999 
	C321.209778,342.601501 323.711395,343.851624 325.638214,343.873718 
	C343.798523,344.082001 361.962250,344.005035 380.124939,343.977356 
	C381.143677,343.975800 382.161926,343.684052 383.582214,343.465515 
	C375.167938,333.115082 367.027130,323.315155 359.170380,313.292572 
	C357.092590,310.642029 354.930054,309.894287 351.698761,309.925903 
	C334.920685,310.090271 318.140137,310.002441 300.997559,310.002441 
	C300.997559,307.954468 300.997559,306.328827 300.997559,304.703217 
	C300.997559,285.207458 301.052612,265.711304 300.919678,246.216446 
	C300.905029,244.062622 300.391449,241.470001 299.128937,239.840332 
	C292.133667,230.810684 284.837921,222.013718 277.639404,213.141663 
	C268.374786,201.723190 259.104767,190.309097 249.846298,178.904495 
	C260.314606,165.934235 270.553955,153.247604 280.931000,140.390411 
	C239.340103,140.390411 198.214539,140.390411 156.427048,140.390411 
	C166.135910,152.403946 175.334473,163.907394 184.741669,175.237610 
	C185.677521,176.364761 187.870193,176.863876 189.504883,176.920288 
	C195.262100,177.118973 201.030396,176.997528 206.715332,176.997528 
	C206.715332,193.645462 206.715332,209.715988 206.715332,226.002457 
	C200.119720,226.002457 193.809647,226.002457 186.499802,226.002457 
M311.000916,146.501816 
	C311.000916,197.584747 311.000916,248.667679 311.000916,299.706055 
	C321.281250,299.706055 331.014771,299.706055 340.648132,299.706055 
	C340.648132,233.033127 340.648132,166.653687 340.648132,100.341873 
	C235.621033,100.341873 130.917419,100.341873 26.321171,100.341873 
	C26.321171,110.387970 26.321171,120.121513 26.321171,130.210327 
	C121.355354,130.210327 216.069519,130.210327 311.000916,130.210327 
	C311.000916,135.549927 311.000916,140.526611 311.000916,146.501816 
M56.054661,216.744339 
	C57.790264,216.495377 59.525665,216.030609 61.261501,216.029007 
	C104.574715,215.988800 147.887970,215.997452 191.201218,215.997452 
	C192.986557,215.997452 194.771912,215.997452 196.703384,215.997452 
	C196.703384,206.155426 196.703384,196.759705 196.703384,187.235199 
	C139.756149,187.235199 83.043510,187.235199 26.223148,187.235199 
	C26.223148,224.860519 26.223148,262.252838 26.223148,299.775330 
	C36.179523,299.775330 45.914288,299.775330 56.001408,299.775330 
	C56.001408,272.273804 56.001408,244.992950 56.054661,216.744339 
M93.314529,62.177551 
	C99.987015,70.442230 106.516563,78.830093 113.447517,86.872009 
	C114.907104,88.565559 117.815712,89.793114 120.097572,89.861084 
	C130.584824,90.173485 141.086578,89.998665 151.583130,89.998672 
	C159.996506,89.998672 168.409882,89.998672 177.442612,89.998672 
	C176.572342,88.550468 176.176514,87.674980 175.592514,86.951363 
	C156.001923,62.677055 136.434723,38.383411 116.687248,14.237247 
	C115.472420,12.751817 112.821655,11.726797 110.825966,11.705457 
	C92.833939,11.513056 74.838989,11.586133 56.844929,11.608431 
	C55.655884,11.609905 54.467113,11.833235 52.861401,11.995490 
	C66.460106,28.866936 79.661644,45.245640 93.314529,62.177551 
M303.499023,89.998627 
	C308.329620,89.998627 313.180206,90.252892 317.981201,89.875954 
	C319.955872,89.720924 322.434418,88.709610 323.648529,87.235283 
	C340.943848,66.233368 358.069733,45.091797 375.214752,23.966251 
	C378.336731,20.119446 381.361572,16.193834 384.992920,11.592997 
	C365.410370,11.592997 347.091461,11.784887 328.781982,11.454648 
	C324.345428,11.374627 321.781250,13.022125 319.232819,16.207067 
	C304.307892,34.859558 289.245758,53.402176 274.249695,71.997810 
	C269.644897,77.707886 265.102356,83.468163 259.899384,89.998627 
	C274.932526,89.998627 288.715973,89.998627 303.499023,89.998627 
M400.499908,129.831253 
	C408.952576,129.831253 417.405243,129.831253 425.923615,129.831253 
	C425.923615,119.649834 425.923615,109.954712 425.923615,100.354370 
	C407.154755,100.354370 388.757874,100.354370 370.365326,100.354370 
	C370.365326,110.252556 370.365326,119.831741 370.365326,129.831497 
	C380.255066,129.831497 389.877472,129.831497 400.499908,129.831253 
M134.111908,371.523712 
	C120.686226,371.523712 107.260544,371.523712 93.856720,371.523712 
	C93.856720,374.710938 93.856720,377.285583 93.856720,380.139648 
	C107.500198,380.139648 120.807930,380.136505 134.115662,380.141266 
	C139.087799,380.143066 141.712891,382.678986 141.668793,387.412079 
	C141.629074,391.674438 138.619858,394.593933 134.064911,394.616669 
	C125.073792,394.661591 116.082283,394.629608 107.090942,394.629486 
	C102.659073,394.629425 98.227196,394.629517 93.795036,394.629517 
	C93.795036,405.506165 93.795036,415.750702 93.795036,426.085663 
	C96.653877,426.085663 99.234802,426.085663 102.140823,426.085663 
	C102.140823,422.815155 102.140915,419.832611 102.140800,416.850098 
	C102.140678,413.686462 102.004463,410.514221 102.204498,407.363312 
	C102.288994,406.032440 102.697052,404.128021 103.622215,403.553131 
	C106.712372,401.632874 118.232895,403.810638 120.734474,406.598358 
	C125.496201,411.904907 130.159760,417.299744 134.848312,422.671692 
	C138.443893,426.791382 141.341660,427.457458 147.094238,425.423187 
	C141.362457,418.556488 135.634811,411.694733 130.514832,405.560944 
	C135.850540,402.854156 140.669510,401.031799 144.768936,398.176453 
	C150.200485,394.393188 148.361618,388.214417 148.202484,382.899567 
	C148.037567,377.391571 141.487747,372.076477 134.111908,371.523712 
M344.978455,421.259399 
	C344.978455,404.837402 344.978455,388.415405 344.978455,371.786987 
	C341.809479,371.786987 339.235138,371.786987 335.882538,371.786987 
	C335.882538,385.191833 335.882538,398.333771 335.882538,412.419403 
	C334.042328,411.011627 333.032135,410.457092 332.303650,409.648682 
	C321.985687,398.198700 311.573547,386.828766 301.493744,375.171783 
	C298.271149,371.444946 294.773499,370.937225 290.230560,371.942230 
	C290.230560,374.591370 290.230560,377.164978 290.230560,378.436798 
	C293.594635,380.733826 296.519409,382.164001 298.700134,384.339844 
	C303.031342,388.661194 306.922119,393.421204 311.049774,397.949890 
	C319.093231,406.774994 326.993073,415.745422 335.392395,424.219574 
	C337.082336,425.924591 340.710724,425.842285 343.493683,426.157196 
	C343.834717,426.195801 344.476593,423.576111 344.978455,421.259399 
M233.144028,424.037598 
	C233.142868,419.040161 233.409775,414.023895 233.060654,409.050903 
	C232.748764,404.607758 233.945999,402.941803 238.763016,403.114105 
	C249.538437,403.499451 260.337097,403.234619 271.398804,403.234619 
	C271.398804,400.232178 271.398804,397.663818 271.398804,394.894287 
	C255.764343,394.894287 240.365265,394.894287 224.775558,394.894287 
	C224.775558,405.395294 224.775558,415.640045 224.775558,426.975830 
	C227.827866,426.228943 230.465363,425.583527 233.144028,424.037598 
M179.538223,371.514221 
	C176.545959,371.523773 173.540741,371.358368 170.564133,371.579041 
	C164.297714,372.043610 158.448135,379.650177 159.992752,385.964813 
	C162.118927,385.526337 165.672958,385.709198 166.206833,384.527557 
	C168.754929,378.887817 173.415192,380.197235 177.720520,380.181244 
	C189.647964,380.136871 201.575668,380.165894 213.631088,380.165894 
	C213.631088,377.083801 213.631088,374.510437 213.631088,371.514282 
	C202.411102,371.514282 191.468735,371.514282 179.538223,371.514221 
M243.500580,380.115570 
	C255.271362,380.115570 267.042145,380.115570 278.994141,380.115570 
	C278.994141,377.067596 278.994141,374.378296 278.994141,371.797180 
	C260.730316,371.797180 242.852051,371.797180 224.846558,371.797180 
	C224.846558,374.627045 224.846558,377.197327 224.846558,380.115631 
	C230.918121,380.115631 236.709534,380.115631 243.500580,380.115570 
M298.202454,396.746368 
	C295.707214,395.813599 293.211945,394.880829 290.153961,393.737732 
	C290.153961,405.452911 290.153961,415.658722 290.153961,426.069611 
	C293.063904,426.069611 295.754272,426.069611 298.621277,426.069611 
	C298.621277,416.303711 298.621277,406.881500 298.202454,396.746368 
z"/>
<path fill="#000000" opacity="1.000000" stroke="none" 
	d="
M186.999695,226.002457 
	C193.809647,226.002457 200.119720,226.002457 206.715332,226.002457 
	C206.715332,209.715988 206.715332,193.645462 206.715332,176.997528 
	C201.030396,176.997528 195.262100,177.118973 189.504883,176.920288 
	C187.870193,176.863876 185.677521,176.364761 184.741669,175.237610 
	C175.334473,163.907394 166.135910,152.403946 156.427048,140.390411 
	C198.214539,140.390411 239.340103,140.390411 280.931000,140.390411 
	C270.553955,153.247604 260.314606,165.934235 249.846298,178.904495 
	C259.104767,190.309097 268.374786,201.723190 277.639404,213.141663 
	C284.837921,222.013718 292.133667,230.810684 299.128937,239.840332 
	C300.391449,241.470001 300.905029,244.062622 300.919678,246.216446 
	C301.052612,265.711304 300.997559,285.207458 300.997559,304.703217 
	C300.997559,306.328827 300.997559,307.954468 300.997559,310.002441 
	C318.140137,310.002441 334.920685,310.090271 351.698761,309.925903 
	C354.930054,309.894287 357.092590,310.642029 359.170380,313.292572 
	C367.027130,323.315155 375.167938,333.115082 383.582214,343.465515 
	C382.161926,343.684052 381.143677,343.975800 380.124939,343.977356 
	C361.962250,344.005035 343.798523,344.082001 325.638214,343.873718 
	C323.711395,343.851624 321.209778,342.601501 319.976135,341.098999 
	C296.946564,313.050659 274.054901,284.888885 251.165237,256.725830 
	C240.517487,243.625015 229.935333,230.470901 218.941116,216.867889 
	C210.952698,226.631760 203.116013,236.149750 195.344620,245.720749 
	C176.138000,269.375061 156.968369,293.059418 137.768723,316.719421 
	C130.983566,325.080872 124.187027,333.433716 117.303123,341.713562 
	C116.465698,342.720856 115.054573,343.892975 113.901878,343.900818 
	C94.291740,344.034851 74.680420,343.996918 53.912514,343.996918 
	C58.626156,338.153931 62.704700,333.082092 66.800255,328.024048 
	C93.823860,294.649597 120.832695,261.263092 147.955566,227.969467 
	C148.882111,226.832108 150.957733,226.108444 152.510193,226.086945 
	C163.838272,225.930038 175.169540,226.002472 186.999695,226.002457 
z"/>
<path fill="#010101" opacity="1.000000" stroke="none" 
	d="
M311.000916,146.002563 
	C311.000916,140.526611 311.000916,135.549927 311.000916,130.210327 
	C216.069519,130.210327 121.355354,130.210327 26.321171,130.210327 
	C26.321171,120.121513 26.321171,110.387970 26.321171,100.341873 
	C130.917419,100.341873 235.621033,100.341873 340.648132,100.341873 
	C340.648132,166.653687 340.648132,233.033127 340.648132,299.706055 
	C331.014771,299.706055 321.281250,299.706055 311.000916,299.706055 
	C311.000916,248.667679 311.000916,197.584747 311.000916,146.002563 
z"/>
<path fill="#000000" opacity="1.000000" stroke="none" 
	d="
M56.028034,217.228210 
	C56.001408,244.992950 56.001408,272.273804 56.001408,299.775330 
	C45.914288,299.775330 36.179523,299.775330 26.223148,299.775330 
	C26.223148,262.252838 26.223148,224.860519 26.223148,187.235199 
	C83.043510,187.235199 139.756149,187.235199 196.703384,187.235199 
	C196.703384,196.759705 196.703384,206.155426 196.703384,215.997452 
	C194.771912,215.997452 192.986557,215.997452 191.201218,215.997452 
	C147.887970,215.997452 104.574715,215.988800 61.261501,216.029007 
	C59.525665,216.030609 57.790264,216.495377 56.028034,217.228210 
z"/>
<path fill="#010101" opacity="1.000000" stroke="none" 
	d="
M93.088860,61.900948 
	C79.661644,45.245640 66.460106,28.866936 52.861401,11.995490 
	C54.467113,11.833235 55.655884,11.609905 56.844929,11.608431 
	C74.838989,11.586133 92.833939,11.513056 110.825966,11.705457 
	C112.821655,11.726797 115.472420,12.751817 116.687248,14.237247 
	C136.434723,38.383411 156.001923,62.677055 175.592514,86.951363 
	C176.176514,87.674980 176.572342,88.550468 177.442612,89.998672 
	C168.409882,89.998672 159.996506,89.998672 151.583130,89.998672 
	C141.086578,89.998665 130.584824,90.173485 120.097572,89.861084 
	C117.815712,89.793114 114.907104,88.565559 113.447517,86.872009 
	C106.516563,78.830093 99.987015,70.442230 93.088860,61.900948 
z"/>
<path fill="#010101" opacity="1.000000" stroke="none" 
	d="
M302.999207,89.998627 
	C288.715973,89.998627 274.932526,89.998627 259.899384,89.998627 
	C265.102356,83.468163 269.644897,77.707886 274.249695,71.997810 
	C289.245758,53.402176 304.307892,34.859558 319.232819,16.207067 
	C321.781250,13.022125 324.345428,11.374627 328.781982,11.454648 
	C347.091461,11.784887 365.410370,11.592997 384.992920,11.592997 
	C381.361572,16.193834 378.336731,20.119446 375.214752,23.966251 
	C358.069733,45.091797 340.943848,66.233368 323.648529,87.235283 
	C322.434418,88.709610 319.955872,89.720924 317.981201,89.875954 
	C313.180206,90.252892 308.329620,89.998627 302.999207,89.998627 
z"/>
<path fill="#040404" opacity="1.000000" stroke="none" 
	d="
M399.999878,129.831375 
	C389.877472,129.831497 380.255066,129.831497 370.365326,129.831497 
	C370.365326,119.831741 370.365326,110.252556 370.365326,100.354370 
	C388.757874,100.354370 407.154755,100.354370 425.923615,100.354370 
	C425.923615,109.954712 425.923615,119.649834 425.923615,129.831253 
	C417.405243,129.831253 408.952576,129.831253 399.999878,129.831375 
z"/>
<path fill="#0D0D0D" opacity="1.000000" stroke="none" 
	d="
M134.557251,371.524536 
	C141.487747,372.076477 148.037567,377.391571 148.202484,382.899567 
	C148.361618,388.214417 150.200485,394.393188 144.768936,398.176453 
	C140.669510,401.031799 135.850540,402.854156 130.514832,405.560944 
	C135.634811,411.694733 141.362457,418.556488 147.094238,425.423187 
	C141.341660,427.457458 138.443893,426.791382 134.848312,422.671692 
	C130.159760,417.299744 125.496201,411.904907 120.734474,406.598358 
	C118.232895,403.810638 106.712372,401.632874 103.622215,403.553131 
	C102.697052,404.128021 102.288994,406.032440 102.204498,407.363312 
	C102.004463,410.514221 102.140678,413.686462 102.140800,416.850098 
	C102.140915,419.832611 102.140823,422.815155 102.140823,426.085663 
	C99.234802,426.085663 96.653877,426.085663 93.795036,426.085663 
	C93.795036,415.750702 93.795036,405.506165 93.795036,394.629517 
	C98.227196,394.629517 102.659073,394.629425 107.090942,394.629486 
	C116.082283,394.629608 125.073792,394.661591 134.064911,394.616669 
	C138.619858,394.593933 141.629074,391.674438 141.668793,387.412079 
	C141.712891,382.678986 139.087799,380.143066 134.115662,380.141266 
	C120.807930,380.136505 107.500198,380.139648 93.856720,380.139648 
	C93.856720,377.285583 93.856720,374.710938 93.856720,371.523712 
	C107.260544,371.523712 120.686226,371.523712 134.557251,371.524536 
z"/>
<path fill="#191919" opacity="1.000000" stroke="none" 
	d="
M344.978760,421.723877 
	C344.476593,423.576111 343.834717,426.195801 343.493683,426.157196 
	C340.710724,425.842285 337.082336,425.924591 335.392395,424.219574 
	C326.993073,415.745422 319.093231,406.774994 311.049774,397.949890 
	C306.922119,393.421204 303.031342,388.661194 298.700134,384.339844 
	C296.519409,382.164001 293.594635,380.733826 290.230560,378.436798 
	C290.230560,377.164978 290.230560,374.591370 290.230560,371.942230 
	C294.773499,370.937225 298.271149,371.444946 301.493744,375.171783 
	C311.573547,386.828766 321.985687,398.198700 332.303650,409.648682 
	C333.032135,410.457092 334.042328,411.011627 335.882538,412.419403 
	C335.882538,398.333771 335.882538,385.191833 335.882538,371.786987 
	C339.235138,371.786987 341.809479,371.786987 344.978455,371.786987 
	C344.978455,388.415405 344.978455,404.837402 344.978760,421.723877 
z"/>
<path fill="#0D0D0D" opacity="1.000000" stroke="none" 
	d="
M159.992233,417.795959 
	C174.286194,417.780243 188.580139,417.764526 203.701050,417.822998 
	C209.138718,411.311218 208.010773,405.298035 201.790207,403.301697 
	C191.839981,403.272461 181.889740,403.243225 171.246765,402.927979 
	C164.690720,400.807129 160.358627,397.601440 159.992371,390.845093 
	C161.708893,390.830994 163.425415,390.816895 165.711548,391.161011 
	C167.274582,392.544891 168.267990,393.570557 169.261398,394.596222 
	C179.867355,394.620239 190.473328,394.644257 201.618652,395.090149 
	C202.345261,395.778687 202.484024,396.218750 202.726807,396.286621 
	C208.739197,397.966797 212.371765,401.682404 213.206802,408.034729 
	C214.200195,415.591766 212.679245,421.836517 204.953003,425.164978 
	C204.553925,425.336914 204.318314,425.888245 204.006622,426.262939 
	C189.646637,426.297577 175.286652,426.332184 160.332886,425.872864 
	C159.823486,422.851288 159.907867,420.323608 159.992233,417.795959 
z"/>
<path fill="#090909" opacity="1.000000" stroke="none" 
	d="
M233.123444,424.487854 
	C230.465363,425.583527 227.827866,426.228943 224.775558,426.975830 
	C224.775558,415.640045 224.775558,405.395294 224.775558,394.894287 
	C240.365265,394.894287 255.764343,394.894287 271.398804,394.894287 
	C271.398804,397.663818 271.398804,400.232178 271.398804,403.234619 
	C260.337097,403.234619 249.538437,403.499451 238.763016,403.114105 
	C233.945999,402.941803 232.748764,404.607758 233.060654,409.050903 
	C233.409775,414.023895 233.142868,419.040161 233.123444,424.487854 
z"/>
<path fill="#101010" opacity="1.000000" stroke="none" 
	d="
M180.032303,371.514252 
	C191.468735,371.514282 202.411102,371.514282 213.631088,371.514282 
	C213.631088,374.510437 213.631088,377.083801 213.631088,380.165894 
	C201.575668,380.165894 189.647964,380.136871 177.720520,380.181244 
	C173.415192,380.197235 168.754929,378.887817 166.206833,384.527557 
	C165.672958,385.709198 162.118927,385.526337 159.992752,385.964813 
	C158.448135,379.650177 164.297714,372.043610 170.564133,371.579041 
	C173.540741,371.358368 176.545959,371.523773 180.032303,371.514252 
z"/>
<path fill="#070707" opacity="1.000000" stroke="none" 
	d="
M243.000763,380.115601 
	C236.709534,380.115631 230.918121,380.115631 224.846558,380.115631 
	C224.846558,377.197327 224.846558,374.627045 224.846558,371.797180 
	C242.852051,371.797180 260.730316,371.797180 278.994141,371.797180 
	C278.994141,374.378296 278.994141,377.067596 278.994141,380.115570 
	C267.042145,380.115570 255.271362,380.115570 243.000763,380.115601 
z"/>
<path fill="#171717" opacity="1.000000" stroke="none" 
	d="
M298.411865,397.102844 
	C298.621277,406.881500 298.621277,416.303711 298.621277,426.069611 
	C295.754272,426.069611 293.063904,426.069611 290.153961,426.069611 
	C290.153961,415.658722 290.153961,405.452911 290.153961,393.737732 
	C293.211945,394.880829 295.707214,395.813599 298.411865,397.102844 
z"/>
<path fill="#868686" opacity="1.000000" stroke="none" 
	d="
M204.232498,426.487793 
	C204.318314,425.888245 204.553925,425.336914 204.953003,425.164978 
	C212.679245,421.836517 214.200195,415.591766 213.206802,408.034729 
	C212.371765,401.682404 208.739197,397.966797 202.726807,396.286621 
	C202.484024,396.218750 202.345261,395.778687 202.083420,395.160522 
	C210.576340,396.279175 214.602463,400.879547 214.640289,409.242126 
	C214.693741,421.052887 213.227112,423.569366 204.232498,426.487793 
z"/>
<path fill="#868686" opacity="1.000000" stroke="none" 
	d="
M159.783463,390.634644 
	C160.358627,397.601440 164.690720,400.807129 170.778564,402.913239 
	C166.243393,405.104309 163.487061,401.689789 161.169922,398.793335 
	C159.441254,396.632477 156.044052,393.939575 159.783463,390.634644 
z"/>
<path fill="#868686" opacity="1.000000" stroke="none" 
	d="
M201.904297,403.642334 
	C208.010773,405.298035 209.138718,411.311218 204.154907,417.795715 
	C205.001617,412.891327 206.449509,408.059082 201.904297,403.642334 
z"/>
<path fill="#868686" opacity="1.000000" stroke="none" 
	d="
M159.749329,417.597473 
	C159.907867,420.323608 159.823486,422.851288 159.864716,425.839844 
	C156.813873,423.497437 157.863022,420.464386 159.749329,417.597473 
z"/>
<path fill="#868686" opacity="1.000000" stroke="none" 
	d="
M169.189880,394.270386 
	C168.267990,393.570557 167.274582,392.544891 166.139923,391.188965 
	C167.038574,391.887268 168.078461,392.915894 169.189880,394.270386 
z"/>
</svg>